<svg width="32" height="32" viewBox="0 0 8 8" xmlns="http://www.w3.org/2000/svg">
  <rect x="2" y="0" width="4" height="1" fill="#F4F4F4"/>
  <rect x="1" y="1" width="1" height="1" fill="#F4F4F4"/>
  <rect x="6" y="1" width="1" height="1" fill="#F4F4F4"/>
  <rect x="1" y="2" width="1" height="1" fill="#F4F4F4"/>
  <rect x="6" y="2" width="1" height="1" fill="#F4F4F4"/>
  <rect x="0" y="3" width="2" height="1" fill="#F4F4F4"/>
  <rect x="6" y="3" width="2" height="1" fill="#F4F4F4"/>
  <rect x="0" y="4" width="1" height="1" fill="#F4F4F4"/>
  <rect x="2" y="4" width="1" height="1" fill="#F4F4F4"/>
  <rect x="5" y="4" width="1" height="1" fill="#F4F4F4"/>
  <rect x="7" y="4" width="1" height="1" fill="#F4F4F4"/>
  <rect x="1" y="5" width="1" height="1" fill="#F4F4F4"/>
  <rect x="6" y="5" width="1" height="1" fill="#F4F4F4"/>
  <rect x="2" y="6" width="1" height="1" fill="#F4F4F4"/>
  <rect x="5" y="6" width="1" height="1" fill="#F4F4F4"/>
</svg>
