<svg width="160" height="100" viewBox="0 0 160 100" fill="none" xmlns="http://www.w3.org/2000/svg">
  <rect width="160" height="100" fill="#0A0A0A"/>
  <rect x="6" y="6" width="148" height="88" stroke="#F4F4F4" stroke-opacity="0.22"/>
  <rect x="16" y="18" width="128" height="18" fill="#111111" stroke="#D9D9D9" stroke-opacity="0.25"/>
  <circle cx="24" cy="27" r="2" fill="#F4F4F4" fill-opacity="0.8"/>
  <circle cx="31" cy="27" r="2" fill="#F4F4F4" fill-opacity="0.45"/>
  <circle cx="38" cy="27" r="2" fill="#F4F4F4" fill-opacity="0.25"/>
  <rect x="18" y="46" width="32" height="30" fill="#121212" stroke="#D9D9D9" stroke-opacity="0.25"/>
  <rect x="56" y="46" width="40" height="30" fill="#121212" stroke="#D9D9D9" stroke-opacity="0.25"/>
  <rect x="102" y="46" width="40" height="30" fill="#121212" stroke="#D9D9D9" stroke-opacity="0.25"/>
  <path d="M60 68L68 61L74 64L82 54L90 58" stroke="#F4F4F4" stroke-width="2"/>
  <path d="M108 67H136" stroke="#6E6E6E" stroke-dasharray="3 3"/>
  <path d="M108 60H128" stroke="#BDBDBD"/>
  <path d="M108 53H120" stroke="#F4F4F4"/>
  <rect x="22" y="64" width="6" height="8" fill="#A0A0A0"/>
  <rect x="31" y="58" width="6" height="14" fill="#D0D0D0"/>
  <rect x="40" y="52" width="6" height="20" fill="#F4F4F4"/>
  <text x="18" y="92" fill="#F4F4F4" font-family="Courier New, monospace" font-size="8" letter-spacing="0.9">PREDICTION MARKET INTELLIGENCE</text>
</svg>
